<svg width="24" height="25" viewBox="0 0 24 25" fill="none" xmlns="http://www.w3.org/2000/svg">
<path fill-rule="evenodd" clip-rule="evenodd" d="M5.77775 9.05046C5.44039 8.7131 4.89577 8.69756 4.56149 9.03796C3.72996 9.88472 2.95004 10.8819 2.2369 12.023C2.0545 12.3148 2.0545 12.6851 2.2369 12.977C4.84531 17.1504 8.347 19.4 12.0001 19.4C12.7004 19.4 13.3951 19.3173 14.079 19.1543C14.741 18.9965 14.9106 18.1833 14.4294 17.7021C14.1835 17.4563 13.8241 17.3692 13.4841 17.4418C12.9875 17.5478 12.4916 17.6 12.0001 17.6C9.42135 17.6 6.71837 16.1637 4.4546 13.0493C4.21659 12.7218 4.21622 12.2787 4.45423 11.9512C4.87702 11.3695 5.31514 10.8463 5.76491 10.3801C6.12266 10.0092 6.1421 9.4148 5.77775 9.05046ZM8.92049 12.1932C8.57478 11.8475 8.00007 12.0111 8.00007 12.5C8.00007 14.7091 9.79093 16.5 12.0001 16.5C12.489 16.5 12.6525 15.9253 12.3068 15.5796L8.92049 12.1932ZM15.3345 14.7102C15.0375 15.1574 14.4127 15.1399 14.0332 14.7603L9.73972 10.4668C9.36018 10.0873 9.34269 9.46255 9.7898 9.16558C10.423 8.745 11.1829 8.49998 12.0001 8.49998C14.2092 8.49998 16.0001 10.2908 16.0001 12.5C16.0001 13.3171 15.755 14.077 15.3345 14.7102ZM16.6259 17.353C16.2157 16.9429 16.3085 16.2535 16.775 15.9087C17.7421 15.1939 18.6764 14.2451 19.5459 13.0488C19.7839 12.7213 19.7836 12.2782 19.5456 11.9507C17.2818 8.8362 14.5788 7.39997 12.0001 7.39998C10.8534 7.39998 9.68218 7.68396 8.53591 8.2732C8.15734 8.4678 7.69112 8.41824 7.39013 8.11725C6.98182 7.70894 7.04713 7.02652 7.55598 6.75356C8.9749 5.99241 10.4743 5.59998 12.0001 5.59998C15.6532 5.59998 19.1549 7.84952 21.7633 12.023C21.9457 12.3148 21.9457 12.6851 21.7633 12.977C20.5732 14.8811 19.1972 16.3847 17.7057 17.457C17.3719 17.697 16.9166 17.6437 16.6259 17.353Z" fill="white"/>
<path d="M5 4.5L20 19.5" stroke="white" stroke-width="1.8" stroke-linecap="round" stroke-linejoin="round"/>
</svg>
